<?xml version="1.0" encoding="UTF-8"?> <svg xmlns="http://www.w3.org/2000/svg" fill="none" viewBox="0.125 0.125 199.75 199.75" stroke-width="0.75"><g id="secured--interface-secured"><g id="shield"><path id="vector" fill="#1e1e2f" d="M61.2699 110.85C52.9799 94.26 45.4629 77.827 34.4579 49.813C34.4579 49.813 32.1759 52.977 32.1809 52.956C39.0859 70.535 47.7409 91.629 58.6039 113.214C75.6299 147.458 116.617 148.062 135.524 119.801C115.553 145.149 76.9999 142.328 61.2699 110.85Z"></path><path id="vector_2" stroke="#1e1e2f" stroke-linecap="round" stroke-linejoin="round" d="M61.2699 110.85C52.9799 94.26 45.4629 77.827 34.4579 49.813C34.4579 49.813 32.1759 52.977 32.1809 52.956C39.0859 70.535 47.7409 91.629 58.6039 113.214C75.6299 147.458 116.617 148.062 135.524 119.801C115.553 145.149 76.9999 142.328 61.2699 110.85Z"></path><path id="vector_3" fill="#fea3b4" d="M65.536 77.5909C65.4921 76.9953 65.5713 76.3971 65.7687 75.8335C65.9661 75.2699 66.2775 74.753 66.6835 74.315C67.0894 73.8771 67.5813 73.5274 68.1283 73.2879C68.6753 73.0484 69.2659 72.9241 69.863 72.9229H101.223V5.00586C101.223 5.00586 34.412 49.9999 34.458 49.8129C45.463 77.8269 52.98 94.2599 61.27 110.85C69.938 128.195 85.581 136.867 101.223 136.867V121.972C82.488 121.118 67.276 101.944 65.536 77.5909Z"></path><path id="vector_4" stroke="#1e1e2f" stroke-linecap="round" stroke-linejoin="round" d="M101.223 5.00586C101.223 5.00586 34.412 49.9999 34.458 49.8129C45.463 77.8269 52.98 94.2599 61.27 110.85C69.938 128.195 85.581 136.867 101.223 136.867C116.865 136.867 132.508 128.194 141.175 110.85C149.386 94.4219 156.917 77.9999 167.988 49.8129C168.034 49.9999 101.223 5.00586 101.223 5.00586Z"></path><path id="vector_5" stroke="#1e1e2f" stroke-linecap="round" stroke-linejoin="round" d="M101.223 72.9229V5.00586"></path><path id="vector_6" stroke="#1e1e2f" stroke-linecap="round" stroke-linejoin="round" d="M101.223 136.867V121.972"></path></g><g id="lock"><path id="vector_7" stroke="#1e1e2f" stroke-linecap="round" stroke-linejoin="round" d="M135.194 72.9229H69.863C69.2658 72.9241 68.6753 73.0484 68.1282 73.2879C67.5812 73.5274 67.0894 73.8771 66.6834 74.315C66.2774 74.753 65.966 75.2699 65.7686 75.8335C65.5712 76.3971 65.492 76.9953 65.536 77.5909C67.316 102.507 83.2 122 102.529 122C121.858 122 137.741 102.505 139.521 77.5889C139.565 76.9935 139.485 76.3955 139.288 75.8321C139.09 75.2687 138.779 74.7521 138.373 74.3143C137.967 73.8766 137.475 73.5271 136.928 73.2878C136.381 73.0484 135.791 72.9241 135.194 72.9229Z"></path><path id="vector_8" fill="#1e1e2f" d="M134.776 72.924C134.776 50.782 120.464 32.833 102.808 32.833C85.1518 32.833 70.8398 50.782 70.8398 72.924H85.7999C85.7999 58.015 93.4169 45.93 102.813 45.93C112.209 45.93 119.826 58.015 119.826 72.924H134.776Z"></path><path id="vector_9" stroke="#1e1e2f" stroke-linecap="round" stroke-linejoin="round" d="M134.776 72.924C134.776 50.782 120.464 32.833 102.808 32.833C85.1518 32.833 70.8398 50.782 70.8398 72.924H85.7999C85.7999 58.015 93.4169 45.93 102.813 45.93C112.209 45.93 119.826 58.015 119.826 72.924H134.776Z"></path><path id="vector_10" fill="#1e1e2f" d="M111.346 106.523L103.929 88.4C104.733 88.1336 105.417 87.5895 105.856 86.8651C106.296 86.1408 106.463 85.2835 106.329 84.447C106.194 83.6104 105.765 82.8493 105.12 82.2999C104.475 81.7505 103.655 81.4487 102.808 81.4487C101.961 81.4487 101.141 81.7505 100.496 82.2999C99.8508 82.8493 99.4224 83.6104 99.2875 84.447C99.1526 85.2835 99.32 86.1408 99.7597 86.8651C100.199 87.5895 100.883 88.1336 101.687 88.4L94.27 106.523H111.346Z"></path><path id="vector_11" stroke="#1e1e2f" stroke-linecap="round" stroke-linejoin="round" d="M111.346 106.523L103.929 88.4C104.733 88.1336 105.417 87.5895 105.856 86.8651C106.296 86.1408 106.463 85.2835 106.329 84.447C106.194 83.6104 105.765 82.8493 105.12 82.2999C104.475 81.7505 103.655 81.4487 102.808 81.4487C101.961 81.4487 101.141 81.7505 100.496 82.2999C99.8508 82.8493 99.4224 83.6104 99.2875 84.447C99.1526 85.2835 99.32 86.1408 99.7597 86.8651C100.199 87.5895 100.883 88.1336 101.687 88.4L94.27 106.523H111.346Z"></path></g><g id="hand"><path id="vector_12" stroke="#1e1e2f" stroke-linecap="round" stroke-linejoin="round" d="M39.5701 138.447C30.1511 138.319 21.8761 138.212 14.9961 138.062V175.236H39.5701V138.447Z"></path><path id="vector_13" stroke="#1e1e2f" stroke-linecap="round" stroke-linejoin="round" d="M184.5 161.213C183.033 158.067 180.866 156.213 176.061 156.491C176.796 155.727 177.282 154.758 177.454 153.712C177.627 152.666 177.479 151.593 177.029 150.633C175.589 147.544 172.846 146.204 167.715 146.803C168.121 145.571 168.029 144.228 167.459 143.063C165.836 139.583 162.559 138.319 156.078 139.555C156.425 138.315 156.333 136.993 155.817 135.813C152.959 128.227 130.265 138.171 107.811 146.661C93.3732 152.119 77.6742 133.585 49.0622 137.687C45.9158 138.11 42.7489 138.364 39.5752 138.447V175.238H52.3752C104.899 201.155 124.446 197.412 143.811 187.49C157.997 180.221 165.968 176.622 180.829 169.159C183.651 167.744 186.1 164.652 184.5 161.213Z"></path><path id="vector_14" stroke="#1e1e2f" stroke-linecap="round" stroke-linejoin="round" d="M89.8161 178.155C94.0691 178.466 119.53 185.109 129.326 186.877C138.949 188.614 146.548 174.477 133.501 169.464C105.136 158.564 105.156 149.674 75.0911 144.548"></path><path id="vector_15" stroke="#1e1e2f" stroke-linecap="round" stroke-linejoin="round" d="M137.119 171.445C162.187 158.935 168.934 156.901 176.056 156.491"></path><path id="vector_16" stroke="#1e1e2f" stroke-linecap="round" stroke-linejoin="round" d="M122.274 164.612C145.734 153.644 159.593 147.742 167.71 146.803"></path><path id="vector_17" stroke="#1e1e2f" stroke-linecap="round" stroke-linejoin="round" d="M114.215 155.724C115.277 155.332 120.351 153.353 121.383 152.88C138.122 145.216 149.009 140.903 156.073 139.555"></path><path id="vector_18" stroke="#1e1e2f" stroke-linecap="round" stroke-linejoin="round" d="M27.2831 159.172C26.3365 159.172 25.411 159.452 24.6239 159.978C23.8367 160.504 23.2231 161.251 22.8607 162.126C22.4983 163 22.4034 163.963 22.5879 164.891C22.7725 165.819 23.2282 166.672 23.8975 167.342C24.5668 168.011 25.4196 168.467 26.348 168.652C27.2764 168.837 28.2388 168.742 29.1134 168.38C29.988 168.017 30.7355 167.404 31.2614 166.617C31.7874 165.83 32.0681 164.904 32.0681 163.958C32.0681 162.689 31.564 161.472 30.6667 160.574C29.7693 159.677 28.5523 159.172 27.2831 159.172Z"></path></g><g id="elements"><path id="vector_19" stroke="#1e1e2f" stroke-linecap="round" stroke-linejoin="round" d="M132.885 10.8401L136.808 17.3111L141.422 7.64307"></path><g id="group"><path id="vector_20" stroke="#1e1e2f" stroke-linecap="round" stroke-linejoin="round" d="M16.1521 88.8774H28.8431"></path><path id="vector_21" stroke="#1e1e2f" stroke-linecap="round" stroke-linejoin="round" d="M22.4971 95.2232V82.5322"></path></g><g id="group_2"><path id="vector_22" stroke="#1e1e2f" stroke-linecap="round" stroke-linejoin="round" d="M163.501 114.05L172.474 123.023"></path><path id="vector_23" stroke="#1e1e2f" stroke-linecap="round" stroke-linejoin="round" d="M163.501 123.023L172.474 114.05"></path></g><g id="group_3"><path id="vector_24" stroke="#1e1e2f" stroke-linecap="round" stroke-linejoin="round" d="M41.959 182.922L46.536 187.499"></path><path id="vector_25" stroke="#1e1e2f" stroke-linecap="round" stroke-linejoin="round" d="M41.959 187.499L46.536 182.922"></path></g><g id="group_4"><path id="vector_26" stroke="#1e1e2f" stroke-linecap="round" stroke-linejoin="round" d="M55.3582 56.7822H62.2812"></path><path id="vector_27" stroke="#1e1e2f" stroke-linecap="round" stroke-linejoin="round" d="M58.8201 60.2433V53.3213"></path></g></g></g></svg> 