<?xml version="1.0" encoding="UTF-8"?>
<!DOCTYPE svg PUBLIC "-//W3C//DTD SVG 1.1//EN" "http://www.w3.org/Graphics/SVG/1.1/DTD/svg11.dtd">
<svg xmlns="http://www.w3.org/2000/svg" version="1.1" width="512px" height="512px" style="shape-rendering:geometricPrecision; text-rendering:geometricPrecision; image-rendering:optimizeQuality; fill-rule:evenodd; clip-rule:evenodd" xmlns:xlink="http://www.w3.org/1999/xlink">
<g><path style="opacity:1" fill="#e5e5e5" d="M 93.5,34.5 C 93.9731,35.9063 94.9731,36.573 96.5,36.5C 97.0798,38.7488 98.4131,40.4154 100.5,41.5C 100.427,43.0269 101.094,44.0269 102.5,44.5C 104.497,47.1598 105.997,50.1598 107,53.5C 112.838,75.5191 118.671,97.5191 124.5,119.5C 244.5,119.924 364.5,120.424 484.5,121C 492.236,121.618 498.569,124.785 503.5,130.5C 503.427,132.027 504.094,133.027 505.5,133.5C 505.427,135.027 506.094,136.027 507.5,136.5C 509.1,138.703 510.433,141.036 511.5,143.5C 511.5,148.833 511.5,154.167 511.5,159.5C 498.83,212.661 486.33,265.994 474,319.5C 469.223,333.277 459.723,341.777 445.5,345C 345.167,345.333 244.833,345.667 144.5,346C 134.618,349.251 130.452,356.085 132,366.5C 134.052,373.219 138.552,377.052 145.5,378C 248.167,378.333 350.833,378.667 453.5,379C 455.584,379.697 457.251,380.864 458.5,382.5C 458.833,383.5 459.5,384.167 460.5,384.5C 465.162,390.014 465.662,396.014 462,402.5C 460.223,404.79 458.056,406.457 455.5,407.5C 453.576,407.711 453.243,408.377 454.5,409.5C 461.444,425.579 460.944,441.579 453,457.5C 450.86,461.462 448.027,464.796 444.5,467.5C 443.5,467.833 442.833,468.5 442.5,469.5C 429.007,482.377 413.007,486.877 394.5,483C 388.953,481.888 383.953,479.722 379.5,476.5C 379.027,475.094 378.027,474.427 376.5,474.5C 375.738,472.738 374.404,471.738 372.5,471.5C 371.5,471.167 370.833,470.5 370.5,469.5C 370.167,468.5 369.5,467.833 368.5,467.5C 361.465,461.446 356.965,453.78 355,444.5C 352.454,433.181 353.287,422.181 357.5,411.5C 358.404,410.791 358.737,409.791 358.5,408.5C 327.16,408.167 295.826,408.5 264.5,409.5C 264.624,410.107 264.957,410.44 265.5,410.5C 275.461,441.129 266.461,464.295 238.5,480C 222.29,486.583 206.623,485.75 191.5,477.5C 191.027,476.094 190.027,475.427 188.5,475.5C 188.027,474.094 187.027,473.427 185.5,473.5C 185.027,472.094 184.027,471.427 182.5,471.5C 167.017,457.551 161.183,440.218 165,419.5C 165.505,416.135 166.672,413.135 168.5,410.5C 169.043,410.44 169.376,410.107 169.5,409.5C 160.19,408.502 150.857,408.168 141.5,408.5C 135.591,408.361 130.257,406.695 125.5,403.5C 125.027,402.094 124.027,401.427 122.5,401.5C 122.027,400.094 121.027,399.427 119.5,399.5C 119.027,398.094 118.027,397.427 116.5,397.5C 103.105,385.485 97.9381,370.485 101,352.5C 101.838,348.14 103.338,344.14 105.5,340.5C 106.906,340.027 107.573,339.027 107.5,337.5C 108.906,337.027 109.573,336.027 109.5,334.5C 110.906,334.027 111.573,333.027 111.5,331.5C 112.5,329.833 113.833,328.5 115.5,327.5C 117.749,326.92 119.415,325.587 120.5,323.5C 122.027,323.573 123.027,322.906 123.5,321.5C 128.829,317.723 134.829,315.723 141.5,315.5C 142.833,315.5 144.167,315.5 145.5,315.5C 145.768,313.901 145.434,312.568 144.5,311.5C 121.681,227.893 99.0146,144.227 76.5,60.5C 76.5,58.5 75.5,57.5 73.5,57.5C 52.4974,57.6666 31.4974,57.5 10.5,57C 9.26253,56.7679 8.26253,56.2679 7.5,55.5C 7.02694,54.0937 6.02694,53.427 4.5,53.5C 2.35665,51.8693 0.689986,49.8693 -0.5,47.5C -0.5,43.8333 -0.5,40.1667 -0.5,36.5C 0.166667,35.8333 0.833333,35.1667 1.5,34.5C 2.90632,34.0269 3.57298,33.0269 3.5,31.5C 5.02694,31.573 6.02694,30.9063 6.5,29.5C 8.15298,29.3404 9.48631,28.6737 10.5,27.5C 32.3295,26.3371 54.3295,26.1705 76.5,27C 83.1012,27.6886 88.7678,30.1886 93.5,34.5 Z M 200.5,154.5 C 202.533,174.72 205.199,194.72 208.5,214.5C 208.5,215.5 208.5,216.5 208.5,217.5C 189.091,217.82 169.757,217.487 150.5,216.5C 145.278,195.271 139.611,174.271 133.5,153.5C 133.5,152.5 133.5,151.5 133.5,150.5C 155.5,150.5 177.5,150.5 199.5,150.5C 199.232,152.099 199.566,153.432 200.5,154.5 Z M 279.5,150.5 C 284.975,151.489 290.642,151.822 296.5,151.5C 296.5,173.5 296.5,195.5 296.5,217.5C 277.5,217.5 258.5,217.5 239.5,217.5C 237.008,195.225 234.008,173.059 230.5,151C 246.83,150.5 263.163,150.333 279.5,150.5 Z M 392.5,151.5 C 389.185,172.043 386.518,192.71 384.5,213.5C 383.566,214.568 383.232,215.901 383.5,217.5C 364.833,217.5 346.167,217.5 327.5,217.5C 327.5,195.5 327.5,173.5 327.5,151.5C 349.167,151.5 370.833,151.5 392.5,151.5 Z M 480.5,155.5 C 475.087,175.551 470.42,195.884 466.5,216.5C 449.244,217.485 431.91,217.819 414.5,217.5C 417.657,196.911 420.324,176.244 422.5,155.5C 423.434,154.432 423.768,153.099 423.5,151.5C 442.5,151.5 461.5,151.5 480.5,151.5C 480.5,152.833 480.5,154.167 480.5,155.5 Z M 213.5,251.5 C 215.757,272.555 218.424,293.555 221.5,314.5C 207.829,314.667 194.163,314.5 180.5,314C 177.944,312.945 176.277,311.112 175.5,308.5C 175.405,306.214 174.738,304.214 173.5,302.5C 172.237,295.715 170.57,289.048 168.5,282.5C 168.405,280.214 167.738,278.214 166.5,276.5C 164.769,267.567 162.435,258.9 159.5,250.5C 176.802,248.514 194.468,247.847 212.5,248.5C 212.263,249.791 212.596,250.791 213.5,251.5 Z M 243.5,249.5 C 260.992,248.503 278.659,248.17 296.5,248.5C 296.5,270.5 296.5,292.5 296.5,314.5C 281.833,314.5 267.167,314.5 252.5,314.5C 249.947,292.636 246.947,270.969 243.5,249.5 Z M 379.5,248.5 C 376.424,269.443 373.757,290.443 371.5,311.5C 370.596,312.209 370.263,313.209 370.5,314.5C 356.167,314.5 341.833,314.5 327.5,314.5C 327.5,292.5 327.5,270.5 327.5,248.5C 344.833,248.5 362.167,248.5 379.5,248.5 Z M 410.5,248.5 C 426.868,247.849 442.868,248.515 458.5,250.5C 453.667,271.14 448.5,291.806 443,312.5C 442.005,313.066 441.172,313.733 440.5,314.5C 427.833,314.5 415.167,314.5 402.5,314.5C 402.5,312.167 402.5,309.833 402.5,307.5C 405.572,287.929 408.238,268.262 410.5,248.5 Z M 227.5,411.5 C 227.973,412.906 228.973,413.573 230.5,413.5C 239.09,422.263 240.756,432.263 235.5,443.5C 233.738,444.262 232.738,445.596 232.5,447.5C 230.596,447.738 229.262,448.738 228.5,450.5C 217.698,455.382 208.031,453.716 199.5,445.5C 199.573,443.973 198.906,442.973 197.5,442.5C 191.868,427.261 196.535,416.428 211.5,410C 216.963,409.246 222.296,409.746 227.5,411.5 Z M 418.5,412.5 C 419.262,414.262 420.596,415.262 422.5,415.5C 422.427,417.027 423.094,418.027 424.5,418.5C 428.978,425.804 429.644,433.471 426.5,441.5C 425.094,441.973 424.427,442.973 424.5,444.5C 422.5,445.833 420.833,447.5 419.5,449.5C 417.973,449.427 416.973,450.094 416.5,451.5C 405.594,455.307 396.261,452.973 388.5,444.5C 388.573,442.973 387.906,441.973 386.5,441.5C 383.356,433.472 384.022,425.805 388.5,418.5C 389.906,418.027 390.573,417.027 390.5,415.5C 399.179,408.832 408.513,407.832 418.5,412.5 Z"/></g>
<g><path style="opacity:0.973" fill="#c4c4c4" d="M 10.5,27.5 C 9.48631,28.6737 8.15298,29.3404 6.5,29.5C 7.28696,27.8958 8.6203,27.2291 10.5,27.5 Z"/></g>
<g><path style="opacity:0.973" fill="#c7c7c7" d="M 6.5,29.5 C 6.02694,30.9063 5.02694,31.573 3.5,31.5C 3.97306,30.0937 4.97306,29.427 6.5,29.5 Z"/></g>
<g><path style="opacity:0.82" fill="#bfbfbf" d="M 3.5,31.5 C 3.57298,33.0269 2.90632,34.0269 1.5,34.5C 1.42702,32.9731 2.09368,31.9731 3.5,31.5 Z"/></g>
<g><path style="opacity:0.008" fill="#b5b5b5" d="M 93.5,34.5 C 95.0269,34.427 96.0269,35.0937 96.5,36.5C 94.9731,36.573 93.9731,35.9063 93.5,34.5 Z"/></g>
<g><path style="opacity:0.945" fill="#bebebe" d="M 96.5,36.5 C 98.5869,37.5846 99.9202,39.2512 100.5,41.5C 98.4131,40.4154 97.0798,38.7488 96.5,36.5 Z"/></g>
<g><path style="opacity:0.824" fill="#c2c2c2" d="M 100.5,41.5 C 101.906,41.9731 102.573,42.9731 102.5,44.5C 101.094,44.0269 100.427,43.0269 100.5,41.5 Z"/></g>
<g><path style="opacity:0.804" fill="#c2c2c2" d="M 4.5,53.5 C 6.02694,53.427 7.02694,54.0937 7.5,55.5C 5.97306,55.573 4.97306,54.9063 4.5,53.5 Z"/></g>
<g><path style="opacity:0.933" fill="#bcbcbc" d="M 73.5,57.5 C 75.5,57.5 76.5,58.5 76.5,60.5C 75.1667,59.8333 74.1667,58.8333 73.5,57.5 Z"/></g>
<g><path style="opacity:0.914" fill="#bdbdbd" d="M 503.5,130.5 C 504.906,130.973 505.573,131.973 505.5,133.5C 504.094,133.027 503.427,132.027 503.5,130.5 Z"/></g>
<g><path style="opacity:0.855" fill="#c4c4c4" d="M 505.5,133.5 C 506.906,133.973 507.573,134.973 507.5,136.5C 506.094,136.027 505.427,135.027 505.5,133.5 Z"/></g>
<g><path style="opacity:0.81" fill="#c4c4c4" d="M 200.5,154.5 C 199.566,153.432 199.232,152.099 199.5,150.5C 177.5,150.5 155.5,150.5 133.5,150.5C 133.5,151.5 133.5,152.5 133.5,153.5C 132.566,152.432 132.232,151.099 132.5,149.5C 155.167,149.5 177.833,149.5 200.5,149.5C 200.5,151.167 200.5,152.833 200.5,154.5 Z"/></g>
<g><path style="opacity:0.973" fill="#c9c9c9" d="M 279.5,150.5 C 285.5,150.5 291.5,150.5 297.5,150.5C 297.5,173.167 297.5,195.833 297.5,218.5C 277.993,218.83 258.659,218.497 239.5,217.5C 258.5,217.5 277.5,217.5 296.5,217.5C 296.5,195.5 296.5,173.5 296.5,151.5C 290.642,151.822 284.975,151.489 279.5,150.5 Z"/></g>
<g><path style="opacity:0.931" fill="#cecece" d="M 480.5,155.5 C 480.5,154.167 480.5,152.833 480.5,151.5C 461.5,151.5 442.5,151.5 423.5,151.5C 423.768,153.099 423.434,154.432 422.5,155.5C 422.5,153.833 422.5,152.167 422.5,150.5C 442.167,150.5 461.833,150.5 481.5,150.5C 481.784,152.415 481.451,154.081 480.5,155.5 Z"/></g>
<g><path style="opacity:0.333" fill="#b5b5b5" d="M 392.5,151.5 C 370.833,151.5 349.167,151.5 327.5,151.5C 327.5,173.5 327.5,195.5 327.5,217.5C 346.167,217.5 364.833,217.5 383.5,217.5C 383.232,215.901 383.566,214.568 384.5,213.5C 384.5,215.167 384.5,216.833 384.5,218.5C 365.167,218.5 345.833,218.5 326.5,218.5C 326.5,195.833 326.5,173.167 326.5,150.5C 348.673,150.169 370.673,150.503 392.5,151.5 Z"/></g>
<g><path style="opacity:0.557" fill="#b9b9b9" d="M 208.5,214.5 C 209.434,215.568 209.768,216.901 209.5,218.5C 189.472,219.154 169.805,218.488 150.5,216.5C 169.757,217.487 189.091,217.82 208.5,217.5C 208.5,216.5 208.5,215.5 208.5,214.5 Z"/></g>
<g><path style="opacity:0.557" fill="#b8b8b8" d="M 466.5,216.5 C 458.193,217.831 449.527,218.498 440.5,218.5C 431.66,218.5 422.993,218.166 414.5,217.5C 431.91,217.819 449.244,217.485 466.5,216.5 Z"/></g>
<g><path style="opacity:0.89" fill="#cacaca" d="M 213.5,251.5 C 212.596,250.791 212.263,249.791 212.5,248.5C 194.468,247.847 176.802,248.514 159.5,250.5C 158.596,249.791 158.263,248.791 158.5,247.5C 176.833,247.5 195.167,247.5 213.5,247.5C 213.5,248.833 213.5,250.167 213.5,251.5 Z"/></g>
<g><path style="opacity:0.89" fill="#cbcbcb" d="M 410.5,248.5 C 426.658,247.504 442.991,247.17 459.5,247.5C 459.737,248.791 459.404,249.791 458.5,250.5C 442.868,248.515 426.868,247.849 410.5,248.5 Z"/></g>
<g><path style="opacity:0.333" fill="#b8b8b8" d="M 379.5,248.5 C 362.167,248.5 344.833,248.5 327.5,248.5C 327.5,270.5 327.5,292.5 327.5,314.5C 341.833,314.5 356.167,314.5 370.5,314.5C 370.263,313.209 370.596,312.209 371.5,311.5C 371.5,312.833 371.5,314.167 371.5,315.5C 356.5,315.5 341.5,315.5 326.5,315.5C 326.5,292.833 326.5,270.167 326.5,247.5C 344.341,247.17 362.008,247.503 379.5,248.5 Z"/></g>
<g><path style="opacity:0.992" fill="#c4c4c4" d="M 166.5,276.5 C 167.738,278.214 168.405,280.214 168.5,282.5C 166.926,280.898 166.259,278.898 166.5,276.5 Z"/></g>
<g><path style="opacity:0.992" fill="#c5c5c5" d="M 173.5,302.5 C 174.738,304.214 175.405,306.214 175.5,308.5C 173.926,306.898 173.259,304.898 173.5,302.5 Z"/></g>
<g><path style="opacity:0.498" fill="#b2b2b2" d="M 144.5,311.5 C 145.434,312.568 145.768,313.901 145.5,315.5C 144.167,315.5 142.833,315.5 141.5,315.5C 142.209,314.596 143.209,314.263 144.5,314.5C 144.5,313.5 144.5,312.5 144.5,311.5 Z"/></g>
<g><path style="opacity:0.463" fill="#b6b6b6" d="M 402.5,307.5 C 402.5,309.833 402.5,312.167 402.5,314.5C 415.167,314.5 427.833,314.5 440.5,314.5C 427.677,315.495 414.677,315.829 401.5,315.5C 401.194,312.615 401.527,309.948 402.5,307.5 Z"/></g>
<g><path style="opacity:0.965" fill="#c3c3c3" d="M 123.5,321.5 C 123.027,322.906 122.027,323.573 120.5,323.5C 120.973,322.094 121.973,321.427 123.5,321.5 Z"/></g>
<g><path style="opacity:0.992" fill="#c9c9c9" d="M 120.5,323.5 C 119.415,325.587 117.749,326.92 115.5,327.5C 116.585,325.413 118.251,324.08 120.5,323.5 Z"/></g>
<g><path style="opacity:0.804" fill="#bfbfbf" d="M 111.5,331.5 C 111.573,333.027 110.906,334.027 109.5,334.5C 109.427,332.973 110.094,331.973 111.5,331.5 Z"/></g>
<g><path style="opacity:0.875" fill="#c5c5c5" d="M 109.5,334.5 C 109.573,336.027 108.906,337.027 107.5,337.5C 107.427,335.973 108.094,334.973 109.5,334.5 Z"/></g>
<g><path style="opacity:0.643" fill="#bcbcbc" d="M 107.5,337.5 C 107.573,339.027 106.906,340.027 105.5,340.5C 105.427,338.973 106.094,337.973 107.5,337.5 Z"/></g>
<g><path style="opacity:0.024" fill="#b7b7b7" d="M 458.5,382.5 C 459.833,382.5 460.5,383.167 460.5,384.5C 459.5,384.167 458.833,383.5 458.5,382.5 Z"/></g>
<g><path style="opacity:0.761" fill="#bcbcbc" d="M 116.5,397.5 C 118.027,397.427 119.027,398.094 119.5,399.5C 117.973,399.573 116.973,398.906 116.5,397.5 Z"/></g>
<g><path style="opacity:0.898" fill="#c6c6c6" d="M 119.5,399.5 C 121.027,399.427 122.027,400.094 122.5,401.5C 120.973,401.573 119.973,400.906 119.5,399.5 Z"/></g>
<g><path style="opacity:0.733" fill="#bfbfbf" d="M 122.5,401.5 C 124.027,401.427 125.027,402.094 125.5,403.5C 123.973,403.573 122.973,402.906 122.5,401.5 Z"/></g>
<g><path style="opacity:0.555" fill="#b7b7b7" d="M 141.5,408.5 C 150.857,408.168 160.19,408.502 169.5,409.5C 169.376,410.107 169.043,410.44 168.5,410.5C 159.5,409.833 150.5,409.167 141.5,408.5 Z"/></g>
<g><path style="opacity:0.557" fill="#b7b7b7" d="M 357.5,411.5 C 342.515,410.167 327.182,409.501 311.5,409.5C 295.996,409.5 280.663,409.833 265.5,410.5C 264.957,410.44 264.624,410.107 264.5,409.5C 295.826,408.5 327.16,408.167 358.5,408.5C 358.737,409.791 358.404,410.791 357.5,411.5 Z"/></g>
<g><path style="opacity:0.769" fill="#bababa" d="M 455.5,407.5 C 455.167,408.167 454.833,408.833 454.5,409.5C 453.243,408.377 453.576,407.711 455.5,407.5 Z"/></g>
<g><path style="opacity:0.851" fill="#c3c3c3" d="M 227.5,411.5 C 229.027,411.427 230.027,412.094 230.5,413.5C 228.973,413.573 227.973,412.906 227.5,411.5 Z"/></g>
<g><path style="opacity:0.871" fill="#bfbfbf" d="M 418.5,412.5 C 420.404,412.738 421.738,413.738 422.5,415.5C 420.596,415.262 419.262,414.262 418.5,412.5 Z"/></g>
<g><path style="opacity:0.016" fill="#b6b6b6" d="M 390.5,415.5 C 390.573,417.027 389.906,418.027 388.5,418.5C 388.427,416.973 389.094,415.973 390.5,415.5 Z"/></g>
<g><path style="opacity:0.008" fill="#b5b5b5" d="M 422.5,415.5 C 423.906,415.973 424.573,416.973 424.5,418.5C 423.094,418.027 422.427,417.027 422.5,415.5 Z"/></g>
<g><path style="opacity:0.663" fill="#bcbcbc" d="M 386.5,441.5 C 387.906,441.973 388.573,442.973 388.5,444.5C 387.094,444.027 386.427,443.027 386.5,441.5 Z"/></g>
<g><path style="opacity:0.655" fill="#bbbbbb" d="M 426.5,441.5 C 426.573,443.027 425.906,444.027 424.5,444.5C 424.427,442.973 425.094,441.973 426.5,441.5 Z"/></g>
<g><path style="opacity:0.729" fill="#bcbcbc" d="M 197.5,442.5 C 198.906,442.973 199.573,443.973 199.5,445.5C 198.094,445.027 197.427,444.027 197.5,442.5 Z"/></g>
<g><path style="opacity:0.949" fill="#bfbfbf" d="M 235.5,443.5 C 235.262,445.404 234.262,446.738 232.5,447.5C 232.738,445.596 233.738,444.262 235.5,443.5 Z"/></g>
<g><path style="opacity:0.965" fill="#c8c8c8" d="M 424.5,444.5 C 423.833,447.167 422.167,448.833 419.5,449.5C 420.833,447.5 422.5,445.833 424.5,444.5 Z"/></g>
<g><path style="opacity:0.906" fill="#c3c3c3" d="M 232.5,447.5 C 231.738,449.262 230.404,450.262 228.5,450.5C 229.262,448.738 230.596,447.738 232.5,447.5 Z"/></g>
<g><path style="opacity:0.973" fill="#c5c5c5" d="M 419.5,449.5 C 419.027,450.906 418.027,451.573 416.5,451.5C 416.973,450.094 417.973,449.427 419.5,449.5 Z"/></g>
<g><path style="opacity:0.008" fill="#b6b6b6" d="M 368.5,467.5 C 369.5,467.833 370.167,468.5 370.5,469.5C 369.167,469.5 368.5,468.833 368.5,467.5 Z"/></g>
<g><path style="opacity:0.016" fill="#b7b7b7" d="M 444.5,467.5 C 444.5,468.833 443.833,469.5 442.5,469.5C 442.833,468.5 443.5,467.833 444.5,467.5 Z"/></g>
<g><path style="opacity:0.753" fill="#bdbdbd" d="M 182.5,471.5 C 184.027,471.427 185.027,472.094 185.5,473.5C 183.973,473.573 182.973,472.906 182.5,471.5 Z"/></g>
<g><path style="opacity:0.929" fill="#c4c4c4" d="M 372.5,471.5 C 374.404,471.738 375.738,472.738 376.5,474.5C 374.596,474.262 373.262,473.262 372.5,471.5 Z"/></g>
<g><path style="opacity:0.91" fill="#c7c7c7" d="M 185.5,473.5 C 187.027,473.427 188.027,474.094 188.5,475.5C 186.973,475.573 185.973,474.906 185.5,473.5 Z"/></g>
<g><path style="opacity:0.753" fill="#c0c0c0" d="M 376.5,474.5 C 378.027,474.427 379.027,475.094 379.5,476.5C 377.973,476.573 376.973,475.906 376.5,474.5 Z"/></g>
<g><path style="opacity:0.753" fill="#c0c0c0" d="M 188.5,475.5 C 190.027,475.427 191.027,476.094 191.5,477.5C 189.973,477.573 188.973,476.906 188.5,475.5 Z"/></g>
</svg>
